<?xml version="1.0" standalone="no"?>
<!DOCTYPE svg PUBLIC "-//W3C//DTD SVG 20010904//EN"
 "http://www.w3.org/TR/2001/REC-SVG-20010904/DTD/svg10.dtd">
<svg version="1.0" xmlns="http://www.w3.org/2000/svg"
 width="700.000000pt" height="700.000000pt" viewBox="0 0 700.000000 700.000000"
 preserveAspectRatio="xMidYMid meet">
<metadata>
Created by potrace 1.11, written by Peter Selinger 2001-2013
</metadata>
<g transform="translate(0.000000,700.000000) scale(0.100000,-0.100000)"
fill="#000000" stroke="none">
<path d="M3298 6995 c-2 -1 -48 -6 -102 -9 -55 -4 -102 -8 -105 -10 -3 -2 -35
-7 -70 -10 -35 -4 -85 -11 -110 -16 -59 -12 -99 -20 -136 -26 -16 -3 -82 -19
-145 -35 -540 -142 -1007 -390 -1440 -764 -43 -37 -273 -267 -316 -315 -458
-523 -751 -1166 -844 -1855 -19 -143 -24 -246 -24 -470 0 -307 18 -464 89
-795 45 -211 164 -531 285 -770 171 -336 376 -617 650 -890 330 -329 684 -570
1100 -748 279 -119 657 -225 892 -248 35 -3 66 -8 69 -9 29 -18 532 -26 709
-12 111 9 120 10 310 43 385 65 785 212 1150 421 63 36 321 208 345 230 11 10
38 31 60 47 22 17 42 32 45 35 3 4 37 33 75 65 70 59 282 269 340 336 209 241
349 448 491 725 209 409 334 843 372 1290 13 158 4 677 -13 704 -1 4 -6 33 -9
66 -7 67 -9 80 -37 220 -112 563 -372 1099 -753 1555 -118 141 -422 438 -485
474 -9 5 -18 12 -21 16 -14 18 -196 149 -304 217 -369 234 -845 421 -1241 487
-48 8 -235 34 -295 41 -54 7 -526 16 -532 10z"/>
</g>
</svg>
